# xmcd
#
# Track frame offsets: 
#        150
#        16092
#        35362
#        53600
#        64735
#        84335
#        101947
#        122797
#        142820
#        162052
#        175022
#        193820
#        206097
#        226702
#        247427
#        263622
#
# Disc length: 4067 seconds
#
# Revision: 4
# Processed by: cddbd v1.5.2PL0 Copyright (c) Steve Scherf et al.
# Submitted via: ExactAudioCopy v0.99pb5
#
DISCID=d10fe110
DTITLE=No Doubt - Return Of Saturn
DYEAR=1900
DGENRE=Punk Rock
TTITLE0=Ex-Girlfriend
TTITLE1=Simple Kind Of Life
TTITLE2=Bathwater
TTITLE3=Six Feet Under
TTITLE4=Magics's In The Makeup
TTITLE5=Artificial Sweetener
TTITLE6=Marry Me
TTITLE7=New
TTITLE8=Too Late
TTITLE9=Comforting Lie
TTITLE10=Suspension Without Suspense
TTITLE11=Staring Problem
TTITLE12=Home Now
TTITLE13=Dark Blue
TTITLE14=Big Distraction
TTITLE15=Full Circle
EXTD=
EXTT0=
EXTT1=
EXTT2=
EXTT3=
EXTT4=
EXTT5=
EXTT6=
EXTT7=
EXTT8=
EXTT9=
EXTT10=
EXTT11=
EXTT12=
EXTT13=
EXTT14=
EXTT15=
PLAYORDER=
